<?xml version="1.0" encoding="utf-8"?>
<!-- Generator: Adobe Illustrator 27.3.1, SVG Export Plug-In . SVG Version: 6.00 Build 0)  -->
<svg version="1.1" id="Layer_1" xmlns="http://www.w3.org/2000/svg" xmlns:xlink="http://www.w3.org/1999/xlink" x="0px" y="0px"
	 viewBox="0 0 124 124" style="enable-background:new 0 0 124 124;" xml:space="preserve">
<style type="text/css">
	.st0{fill:#FFFFFF;}
</style>
<path class="st0" d="M67.8,83.8c-5.5-0.4-7.8-3.1-12.1-5.7c-1.9,10-4.2,19.7-9.5,26.3c-1.6,1.9-4.7,1-4.8-1.5
	c-0.8-16,4.7-28.7,7.4-42c-5.1-8.7,0.6-26.1,11.5-21.8c13.4,5.3-11.6,32.2,5.2,35.6C83,78.1,90.2,44.3,79.3,33.3
	c-15.7-15.9-45.6-0.4-41.9,22.4c0.7,4.3,4.3,6.3,3.9,10.6c-0.3,2.7-3,4.2-5.4,3.1C29,66.2,26.8,59.1,27.1,50
	c0.6-17.2,15.5-29.3,30.4-31c18.9-2.1,36.6,6.9,39,24.7C99.3,63.6,88,85.3,67.8,83.8L67.8,83.8z"/>
</svg>
