<?xml version="1.0" encoding="utf-8"?>
<!-- Generator: Adobe Illustrator 27.3.1, SVG Export Plug-In . SVG Version: 6.00 Build 0)  -->
<svg version="1.1" id="Layer_1" xmlns="http://www.w3.org/2000/svg" xmlns:xlink="http://www.w3.org/1999/xlink" x="0px" y="0px"
	 viewBox="0 0 24 24" style="enable-background:new 0 0 24 24;" xml:space="preserve">
<g>
	<g>
		<path d="M12,2c2.2,0,3.9,1.8,3.9,3.9c0,2.2-1.8,3.9-3.9,3.9c-2.2,0-3.9-1.8-3.9-3.9C8.1,3.8,9.8,2,12,2 M12,0
			C8.7,0,6.1,2.7,6.1,5.9c0,3.3,2.7,5.9,5.9,5.9c3.3,0,5.9-2.7,5.9-5.9C17.9,2.7,15.3,0,12,0L12,0z"/>
	</g>
	<g>
		<path d="M12,15.6c4.2,0,7.8,2.6,9.3,6.4H2.7C4.2,18.2,7.8,15.6,12,15.6 M12,13.6C5.9,13.6,0.9,18.1,0.2,24h23.7
			C23.1,18.1,18.1,13.6,12,13.6L12,13.6z"/>
	</g>
</g>
</svg>
