<?xml version="1.0" encoding="utf-8"?>
<!-- Generator: Adobe Illustrator 27.3.1, SVG Export Plug-In . SVG Version: 6.00 Build 0)  -->
<svg version="1.1" id="Layer_1" xmlns="http://www.w3.org/2000/svg" xmlns:xlink="http://www.w3.org/1999/xlink" x="0px" y="0px"
	 viewBox="0 0 200 200" style="enable-background:new 0 0 200 200;" xml:space="preserve">
<style type="text/css">
	.st0{fill:#5168B1;}
	.st1{fill:#FFFFFF;}
</style>
<g>
	<g>
		<circle class="st0" cx="100" cy="100" r="82"/>
	</g>
	<path class="st1" d="M75.6,55.7c5.8-6,13.8-9,23.8-9s20.4,1,31,3.1L127,76.4c-11-2.5-18.6-3.9-22.6-3.9c-5.3,0-7.8,2.1-7.8,6.4
		c0,1.7,1.3,3.3,3.8,4.9c2.5,1.5,5.6,3.2,9,4.9c3.6,1.7,7.1,3.8,10.7,6.1s6.5,5.8,9,10.3c2.5,4.4,3.8,9.6,3.8,15.3
		c0,10.6-2.8,18.8-8.5,24.5c-5.7,5.8-13.8,8.6-24,8.6s-20.6-1.7-30.4-4.9l1.8-24.9c11.9,3.5,20.1,5.1,24.9,5.1s6.9-2.1,6.9-6.1
		c0-2.1-1.3-4-3.8-5.8c-2.5-1.8-5.6-3.6-9-5.3c-3.6-1.8-7.1-3.9-10.7-6.1c-3.6-2.4-6.7-5.7-9.2-10.1c-2.5-4.4-3.8-9.7-3.8-15.8
		c0-9.9,2.9-17.8,8.6-23.9L75.6,55.7z"/>
</g>
</svg>
