<?xml version="1.0" encoding="UTF-8"?>
<svg id="Layer_1" data-name="Layer 1" xmlns="http://www.w3.org/2000/svg" viewBox="0 0 48.56 9.25">
  <defs>
    <style>
      .cls-1 {
        fill: #5168b1;
      }

      .cls-2 {
        fill: #231f20;
      }
    </style>
  </defs>
  <g>
    <path class="cls-1" d="m.62.65c.42-.43.99-.65,1.71-.65s1.47.07,2.23.22l-.24,1.92c-.79-.18-1.34-.28-1.63-.28-.38,0-.56.15-.56.46,0,.12.09.24.27.35.18.11.4.23.65.35.26.12.51.27.77.44.26.17.47.42.65.74.18.32.27.69.27,1.1,0,.76-.2,1.35-.61,1.76-.41.42-.99.62-1.73.62s-1.48-.12-2.19-.35l.13-1.79c.86.25,1.45.37,1.79.37s.5-.15.5-.44c0-.15-.09-.29-.27-.42-.18-.13-.4-.26-.65-.38-.26-.13-.51-.28-.77-.44-.26-.17-.48-.41-.66-.73-.18-.32-.27-.7-.27-1.14,0-.71.21-1.28.62-1.72Z"/>
    <path class="cls-1" d="m10.97,7.57h-2.04v-2.82h-1.4v2.82h-2.06V.12h2.06v2.93h1.4V.12h2.04v7.45Z"/>
    <path class="cls-1" d="m12.43.9c.46-.6,1.21-.9,2.26-.9s1.8.3,2.25.89c.45.59.68,1.55.68,2.89s-.23,2.32-.7,2.96c-.46.64-1.22.96-2.26.96s-1.79-.32-2.24-.95-.68-1.61-.68-2.95.23-2.3.69-2.9Zm2.95,1.39c-.12-.26-.35-.39-.71-.39s-.59.13-.69.39c-.1.26-.16.75-.16,1.48v.29c0,.78.06,1.29.17,1.53.12.24.35.37.71.37s.59-.12.69-.35c.1-.23.16-.71.16-1.44v-.38c0-.74-.06-1.23-.17-1.49Z"/>
    <path class="cls-1" d="m22.46,7.57h-4.03V.12h4.15l-.12,1.84h-1.98v1.12h1.72v1.58h-1.72v1.24h2.1l-.12,1.68Z"/>
  </g>
  <g>
    <path class="cls-2" d="m28.68,6.53c-.22.32-.53.58-.93.78-.4.2-.85.3-1.36.3-.43,0-.77-.03-1.02-.1-.25-.07-.38-.17-.38-.29,0-.07.05-.18.14-.33s.17-.23.22-.23c.08,0,.12.02.12.05,0,.02-.01.04-.03.07s-.03.05-.03.08c0,.02.04.05.12.09.08.04.21.08.38.11.17.03.38.05.62.05.39,0,.73-.08,1.02-.23s.52-.34.68-.57c.16-.23.24-.45.24-.67,0-.28-.14-.53-.41-.73-.27-.2-.71-.4-1.32-.58-.58-.19-1.04-.35-1.36-.48-.32-.13-.58-.29-.77-.47-.2-.19-.3-.42-.3-.69,0-.36.2-.72.61-1.07.41-.35.91-.64,1.51-.86.6-.22,1.15-.33,1.67-.33.26,0,.4.05.42.16.02.11.03.22.03.36,0,.1-.04.15-.11.15-.03,0-.07-.01-.11-.03-.04-.02-.08-.04-.11-.05-.04-.01-.09-.03-.14-.04-.05-.01-.13-.02-.23-.02-.34,0-.75.09-1.23.27-.48.18-.9.4-1.25.66-.35.26-.53.52-.53.76,0,.2.08.37.24.51s.38.27.65.37.65.23,1.14.38c.72.21,1.26.45,1.6.71.34.26.52.58.52.97,0,.33-.11.65-.33.97Z"/>
    <path class="cls-2" d="m34.11,7.63c-.05.06-.12.08-.21.08-.07,0-.12-.01-.17-.04-.05-.03-.07-.07-.07-.12l.02-.68c.03-.81.05-1.47.05-1.98,0-.75-.05-1.27-.16-1.57s-.23-.45-.36-.45c-.31,0-.7.48-1.16,1.43-.47.96-.92,2-1.35,3.13-.03.09-.08.18-.13.27-.06.08-.11.13-.17.13-.15,0-.22-.05-.22-.14,0-.4-.02-1.15-.05-2.25-.03-1.1-.06-1.83-.08-2.17-.06-1.18-.12-1.9-.17-2.18-.05-.28-.08-.42-.08-.44,0-.07.04-.12.11-.15.07-.03.16-.05.28-.05.09,0,.16.21.2.63.04.42.07.95.09,1.6v.28c.02.2.03.79.04,1.75s0,1.67,0,2.12c.3-.76.59-1.43.85-2.02.27-.59.57-1.15.92-1.66.35-.52.67-.77.97-.77.25,0,.46.21.63.63.17.42.26,1.04.26,1.87,0,.37,0,.88.02,1.54v1.04c0,.08-.02.15-.07.2Z"/>
    <path class="cls-2" d="m38.54,6.14c-.19.33-.46.62-.81.86-.35.24-.75.36-1.19.36s-.77-.12-.98-.37-.32-.55-.32-.91c0-.32.06-.71.17-1.17s.28-.88.49-1.25c.01-.03.07-.12.16-.29.1-.17.2-.3.32-.38s.24-.13.37-.13c.06,0,.11.01.16.04s.07.07.07.11c0,.01-.02.04-.05.09s-.06.09-.08.11c-.22.27-.4.54-.54.8-.18.33-.33.67-.43,1-.1.33-.15.69-.15,1.07,0,.52.32.78.95.78.3,0,.57-.09.82-.26s.46-.38.61-.63c.15-.25.23-.47.23-.67,0-.23-.08-.43-.23-.6-.15-.17-.36-.35-.62-.54-.17-.12-.3-.23-.38-.31-.08-.08-.12-.14-.12-.2,0-.08.06-.14.17-.19.11-.05.24-.07.39-.07.09,0,.14,0,.17.01s.04.03.04.05c0,.01-.01.03-.03.06-.02.03-.03.05-.03.07s.07.08.2.2c.26.22.48.44.66.66.18.22.27.49.27.79,0,.26-.1.55-.29.89Z"/>
    <path class="cls-2" d="m43.09,6.01c-.6.26-1.39.42-2.37.49-.01.45-.02.81-.02,1.09,0,.38.02.72.05,1.03.01.12.02.2.02.25,0,.11-.02.2-.07.27s-.11.11-.2.11c-.12,0-.18-.04-.2-.13,0-.11-.01-.28-.02-.52-.01-.23-.02-.47-.02-.71v-1.38s-.08,0-.17.01c-.09,0-.18,0-.26,0-.16,0-.24-.11-.24-.33,0-.16.04-.24.12-.24.03,0,.1.02.24.06.13.04.24.06.34.06v-2.79c-.06,0-.17-.02-.34-.03-.16-.02-.28-.05-.36-.09s-.11-.11-.11-.2c0-.17.03-.26.1-.26.07,0,.16.03.27.08.01,0,.05.02.12.05.07.03.16.05.28.06.04-.1.08-.18.11-.22s.11-.06.21-.06c.13,0,.2.03.2.08,0,.02,0,.05-.03.1-.02.05-.03.1-.03.14.41.06.87.18,1.39.36s.96.41,1.34.69.57.58.57.91c0,.47-.3.83-.91,1.08Zm0-1.79c-.32-.22-.7-.41-1.14-.55-.44-.14-.87-.25-1.28-.32.01.38.02.89.03,1.51s0,1.04,0,1.25c.39,0,.81-.05,1.26-.15.45-.1.82-.24,1.13-.41s.46-.37.46-.58c0-.28-.16-.53-.47-.75Z"/>
    <path class="cls-2" d="m48.56,4.92c0,.12-.09.38-.26.78-.17.4-.44.77-.79,1.11-.35.34-.78.51-1.3.51-.42,0-.77-.13-1.05-.39-.28-.26-.42-.67-.42-1.21,0-.51.12-1.02.35-1.52.24-.5.55-.91.93-1.23.38-.32.78-.48,1.18-.48.24,0,.45.05.62.16.17.11.25.26.25.47,0,.23-.13.45-.39.67s-.6.41-1.01.57c-.41.17-.84.28-1.28.36-.08.3-.12.6-.12.89,0,.38.09.68.27.89.18.21.44.32.77.32.51,0,.92-.18,1.23-.54s.58-.77.79-1.22c.01-.03.04-.08.07-.15.03-.08.06-.11.09-.11.05,0,.07.05.07.15Zm-1.1-1.94c-.11-.06-.24-.09-.38-.09-.25,0-.49.08-.72.25-.23.17-.42.36-.58.59-.15.23-.25.43-.3.61.3-.03.62-.12.96-.26.33-.14.62-.29.84-.45.23-.16.34-.3.34-.4s-.05-.19-.16-.25Z"/>
  </g>
</svg>