<svg width="100" height="100" viewBox="0 0 100 100" fill="none" xmlns="http://www.w3.org/2000/svg">
<rect width="100" height="100" rx="50" fill="#EFF0F1"/>
<path d="M49.7548 68.5075C49.7548 66.4925 51.2963 64.9254 53.1181 64.9254C54.9399 64.9254 56.4815 66.5672 56.4815 68.5075C56.4815 70.4478 54.9399 72.0896 53.1181 72.0896C51.2963 72.0896 49.7548 70.5224 49.7548 68.5075ZM63.5586 68.5075C63.5586 66.4925 65.1001 64.9254 66.9219 64.9254C68.8138 64.9254 70.2853 66.5672 70.2853 68.5075C70.2853 70.4478 68.7437 72.0896 66.9219 72.0896C65.1001 72.1642 63.5586 70.5224 63.5586 68.5075ZM31.6066 68.5075C31.6066 66.4925 33.1481 64.9254 34.97 64.9254C36.8619 64.9254 38.3333 66.5672 38.3333 68.5075C38.3333 70.4478 36.7918 72.0896 34.97 72.0896C33.0781 72.1642 31.6066 70.5224 31.6066 68.5075ZM17.8028 68.5075C17.8028 66.4925 19.3443 64.9254 21.1662 64.9254C23.0581 64.9254 24.5295 66.5672 24.5295 68.5075C24.5295 70.4478 22.988 72.0896 21.1662 72.0896C19.3443 72.1642 17.8028 70.5224 17.8028 68.5075ZM45.6907 62.1642H42.7477V74.7761H45.6907V62.1642ZM24.5996 74.7761H27.5425V62.1642H24.5996V63.209C23.6186 62.4627 22.4274 62.0149 21.0961 62.0149C17.7327 62.0149 15 64.9254 15 68.5075C15 72.1642 17.7327 75 21.0961 75C22.4274 75 23.6186 74.5522 24.5996 73.806V74.7761ZM70.3554 74.7761H73.2983V62.1642H70.3554V63.209C69.3744 62.4627 68.1832 62.0149 66.8519 62.0149C63.4885 62.0149 60.7558 64.9254 60.7558 68.5075C60.7558 72.1642 63.4885 75 66.8519 75C68.1832 75 69.3744 74.5522 70.3554 73.806V74.7761ZM74.3494 70.6716C74.4194 73.209 76.4514 75 79.8849 75C82.6877 75 85 73.7313 85 70.8955C85 68.8806 83.949 67.7612 81.5666 67.2388L79.6747 66.8657C78.4835 66.6418 77.6426 66.3433 77.6426 65.597C77.6426 64.7761 78.4835 64.403 79.4645 64.403C80.9359 64.403 81.5666 65.2239 81.5666 66.1194H84.5095C84.3694 63.6567 82.4775 62.0149 79.4645 62.0149C76.3814 62.0149 74.5596 63.806 74.5596 66.194C74.5596 69.0299 76.7317 69.5522 78.6236 69.9254L80.1652 70.2239C81.2863 70.4478 81.7768 70.8209 81.7768 71.4925C81.7768 72.0896 81.2162 72.7612 79.8849 72.7612C77.9229 72.7612 77.3624 71.7164 77.2923 70.7463H74.3494V70.6716ZM38.3333 57.8358V63.1343C37.3524 62.3881 36.1612 61.9403 34.8298 61.9403C31.4665 61.9403 28.7337 64.8507 28.7337 68.4328C28.7337 72.0896 31.4665 74.9254 34.8298 74.9254C36.1612 74.9254 37.3524 74.4776 38.3333 73.7313V74.6269H41.2763V57.8358H38.3333ZM56.5516 57.8358V63.1343C55.5706 62.3881 54.3794 61.9403 53.048 61.9403C49.6847 61.9403 46.952 64.8507 46.952 68.4328C46.952 72.0896 49.6847 74.9254 53.048 74.9254C54.3794 74.9254 55.5706 74.4776 56.5516 73.7313V74.6269H59.4945V57.8358H56.5516ZM22.5676 54.1045L24.5996 57.8358H38.3333L32.8679 47.7612L22.5676 54.1045ZM45.6907 60.9701V57.8358H56.5516L44.99 36.5672L34.6897 42.8358L42.7477 57.8358V60.9701H45.6907ZM60.8959 57.8358H74.6997L56.9019 25L46.6016 31.3433L60.8959 57.8358Z" fill="black"/>
</svg>
