<svg width="100" height="100" viewBox="0 0 100 100" fill="none" xmlns="http://www.w3.org/2000/svg">
<rect width="100" height="100" rx="50" fill="#EFF0F1"/>
<path d="M84.9583 40.01C84.7499 41.2223 84.5831 42.4347 84.3746 43.7184C84.333 44.075 84.2496 44.1463 84.0411 44.1463C82.7904 44.1463 81.5397 44.1463 80.2473 44.1463C79.7054 44.1463 79.2468 44.5029 78.9966 45.3587C78.8299 45.8579 78.8299 46.3571 79.08 46.785C79.3301 47.2129 79.5803 47.5694 79.8721 47.8547C80.4141 48.4252 80.9561 48.8531 81.498 49.4237C81.9983 49.9229 82.4569 50.4934 82.8738 51.2066C83.6242 52.4189 83.8327 54.0592 83.7076 55.7708C83.6242 56.9832 83.3741 58.1242 83.0406 59.1939C82.2068 61.7613 80.9144 63.1163 79.2468 63.259C77.5375 63.4016 75.8282 63.3303 74.1189 63.3303C74.0772 63.3303 74.0355 63.3303 73.9104 63.259C73.9938 62.7597 74.0772 62.2605 74.1189 61.8326C74.2856 60.8342 74.4107 59.9071 74.5775 58.9087C74.6192 58.5521 74.7025 58.4808 74.911 58.4808C76.1617 58.4808 77.4124 58.4808 78.6631 58.4808C79.0383 58.4808 79.4135 58.4095 79.7887 58.2668C80.289 58.0529 80.5392 57.4111 80.6225 56.5553C80.7059 55.8421 80.4975 55.3429 80.2056 54.9863C79.8304 54.4871 79.4135 54.0592 78.9966 53.6313C78.413 52.9895 77.7876 52.4189 77.2456 51.7771C76.5369 50.9213 75.9532 49.7802 75.8282 48.2113C75.7865 47.4268 75.7865 46.6423 75.8699 45.9292C76.4118 41.4363 78.6631 39.5107 80.5392 39.4394C81.9566 39.3681 83.4158 39.4394 84.8332 39.4394C84.8749 39.4394 84.9166 39.4394 85 39.5107C85 39.5821 84.9583 39.796 84.9583 40.01ZM75.3279 43.7184C75.2862 44.0036 75.2028 44.075 75.0361 44.075C74.2439 44.075 73.4101 44.075 72.618 44.2176C70.0749 44.8594 68.0738 48.6392 67.907 52.9181C67.782 56.1274 68.9493 58.3382 70.8253 58.3382C71.5341 58.3382 72.2428 58.3382 72.9932 58.3382H73.3268C73.2434 58.98 73.16 59.4792 73.0766 59.9784C72.9515 60.9055 72.7848 61.7613 72.6597 62.6884C72.618 62.9737 72.5347 63.1163 72.3679 63.1163C71.409 63.1163 70.4085 63.1876 69.4496 63.045C66.8231 62.8311 65.0304 59.9784 64.7803 55.6995C64.6135 52.7042 65.1138 49.9229 65.9476 47.3555C67.4068 42.8626 69.658 40.2239 72.6597 39.5107C73.702 39.2968 74.7442 39.3681 75.8282 39.2968C75.8699 39.2968 75.9115 39.2968 75.9532 39.3681L75.7448 40.7231C75.6197 41.7215 75.453 42.72 75.3279 43.7184ZM62.4039 62.7597C62.3623 63.1163 62.2789 63.259 62.0287 63.259C61.1949 63.259 60.4028 63.259 59.569 63.259C59.4856 63.259 59.4023 63.259 59.2772 63.259L59.569 61.4047L62.7792 40.4379C62.9459 39.2968 62.9459 39.2968 63.5296 39.2968C64.2383 39.2968 64.947 39.2968 65.6141 39.2968C65.6975 39.2968 65.8225 39.2968 65.9476 39.2968C65.7392 40.7231 65.5307 42.0068 65.3223 43.3618C64.3634 49.8516 63.4045 56.27 62.4039 62.7597ZM59.9859 43.6471C59.9442 44.0036 59.8608 44.075 59.6524 44.075C58.4017 44.075 57.151 44.075 55.9003 44.075C55.3583 44.075 54.9414 44.4315 54.6913 45.216C54.4828 45.7865 54.5245 46.2858 54.7746 46.7137C55.0248 47.1416 55.3166 47.4981 55.6501 47.8547C56.2338 48.4966 56.9008 49.0671 57.4845 49.6376C57.7346 49.8516 57.9431 50.1368 58.1515 50.4934C59.1521 51.8484 59.6107 53.7026 59.3606 55.9134C59.2355 57.3397 58.902 58.6947 58.4434 59.9071C57.693 61.7613 56.609 62.8311 55.2749 63.1163C54.6913 63.259 54.1076 63.259 53.5239 63.259C52.3149 63.259 51.1059 63.259 49.9386 63.259C49.8135 63.259 49.7301 63.259 49.5634 63.259C49.6051 62.9024 49.6468 62.5458 49.6884 62.2605C49.8552 61.1908 50.022 60.1211 50.1887 59.0513C50.2304 58.6234 50.3555 58.4808 50.6473 58.4808C51.898 58.4808 53.1487 58.4808 54.3577 58.4808C54.6496 58.4808 54.9831 58.4095 55.2749 58.3382C55.6501 58.1955 55.942 57.9103 56.1087 57.2684C56.3589 56.3413 56.3172 55.6282 55.8586 54.9863C55.4417 54.4158 54.9831 53.9879 54.5662 53.4887C53.9825 52.8468 53.3572 52.2763 52.7735 51.5631C51.9814 50.5647 51.4811 49.281 51.3977 47.5694C51.3561 46.1431 51.5645 44.7881 51.9814 43.5758C52.8152 41.0084 54.1493 39.7247 55.8169 39.3681C56.067 39.2968 56.3589 39.2968 56.609 39.2968C57.8597 39.2968 59.1104 39.2968 60.3194 39.2968H60.6113C60.4445 40.4379 60.2777 41.5789 60.111 42.6486C60.111 43.0052 60.0276 43.2905 59.9859 43.6471ZM48.5628 59.4792C48.3961 60.6203 48.1876 61.7613 48.0208 62.9024C47.9791 63.1876 47.8958 63.259 47.7707 63.259C45.8113 63.259 43.8101 63.259 41.8507 63.1876C41.1837 63.1876 40.5166 62.8311 39.933 62.2605C38.6406 61.0482 37.9735 58.5521 38.307 55.8421C38.5572 53.6313 39.2659 51.991 40.3082 50.636C41.6423 48.8531 43.1848 47.8547 44.8941 47.926C45.6028 47.926 46.3115 47.926 46.9786 47.926C47.187 47.926 47.3121 47.7834 47.3121 47.4268C47.3538 46.8563 47.4789 46.2858 47.5206 45.7152C47.5623 44.8594 47.2704 44.2889 46.7701 44.1463C46.5617 44.075 46.3532 44.075 46.1448 44.075C44.9358 44.075 43.6851 44.075 42.4761 44.075H42.1425C42.3927 42.506 42.6428 41.0084 42.8513 39.5107C42.8513 39.3681 43.018 39.2968 43.1014 39.2968C44.1437 39.2968 45.2276 39.2968 46.3115 39.2968C46.6868 39.2968 47.1037 39.2255 47.5206 39.2968C48.813 39.5107 49.8552 40.4379 50.4389 42.506C50.8141 43.861 50.7724 45.2873 50.5639 46.7137C49.8969 50.9926 49.2299 55.2003 48.5628 59.4792ZM46.3949 52.7042C45.5611 52.7042 44.7273 52.6329 43.8935 52.7042C42.893 52.7755 41.9341 54.0592 41.6839 55.6282C41.4755 57.0545 41.9341 58.2668 42.7679 58.3382C43.6434 58.4095 44.5606 58.3382 45.4361 58.4095C45.6028 58.4095 45.6445 58.2668 45.6862 58.0529C45.9363 56.4126 46.1865 54.701 46.4783 53.0608C46.4783 52.9895 46.4783 52.8468 46.52 52.7042C46.4366 52.7042 46.3949 52.7042 46.3949 52.7042ZM32.5955 55.6995C30.7194 59.6218 28.5932 63.1163 26.0918 65.969C24.591 67.6092 23.0484 69.0355 21.2975 69.6774C20.0468 70.1053 18.7961 70.1766 17.587 69.4634C16.0028 68.465 15.0439 66.1829 15.0022 63.3303C14.9606 60.4776 15.5025 57.9816 16.3363 55.5568C17.3786 52.6329 18.7127 50.2081 20.2552 48.14C22.0896 45.6439 24.049 43.6471 26.3003 42.4347C27.009 42.0781 27.7594 41.7929 28.5515 41.7215C29.0518 41.6502 29.5938 41.7929 30.0941 42.0781C31.2197 42.6486 31.7617 44.5029 31.4699 46.4284C31.4699 46.4997 31.4282 46.6423 31.4282 46.785L31.4699 46.8563C31.6783 46.4284 31.8868 46.0005 32.0535 45.5013C32.8873 43.5044 33.6377 41.4363 34.013 39.0115C34.138 38.1557 34.2631 37.2286 34.1797 36.3728C34.013 34.6613 33.3876 33.6628 32.4704 33.1636C31.5115 32.4505 30.5527 32.5931 29.5938 32.8784C27.7594 33.4489 26.0918 34.6613 24.4659 36.2302C23.7989 36.8721 23.1318 37.5852 22.4648 38.2984L22.298 37.8705C22.5482 37.5139 22.7566 37.2286 23.0068 36.8721C25.258 33.9481 27.6761 31.7373 30.4276 30.5962C31.8034 30.0257 33.1792 29.7405 34.5549 30.311C36.3893 31.0241 37.5983 33.5202 37.7234 36.7294C37.8068 39.2968 37.4315 41.6502 36.8479 43.9323C35.8056 48.2826 34.3048 52.1337 32.5955 55.6995ZM29.0518 44.1463C28.4682 44.0036 27.9262 44.2176 27.3425 44.5029C25.0496 45.7152 23.2152 48.14 21.7144 51.2066C21.2141 52.205 20.7972 53.346 20.5887 54.6297C20.2552 56.7692 21.0056 58.4095 22.2563 58.4095C22.9234 58.4095 23.507 58.1242 24.0907 57.625C26.2169 55.9134 27.9679 53.346 29.5104 50.3508C29.9273 49.5663 30.1775 48.5679 30.3442 47.4981C30.6777 45.6439 30.1775 44.3602 29.0518 44.1463Z" fill="black"/>
</svg>
