<svg width="100" height="100" viewBox="0 0 100 100" fill="none" xmlns="http://www.w3.org/2000/svg">
<rect width="100" height="100" rx="50" fill="#EFF0F1"/>
<g clip-path="url(#clip0_146_2288)">
<path d="M32.9595 48.2373C32.8695 48.2918 32.7609 48.3092 32.6391 48.3313C32.5173 48.35 32.2682 48.4699 32.1403 48.8805C32.0109 49.2899 32.6957 49.1378 32.6957 49.1378C32.8068 49.2157 33.1997 48.4922 33.1602 48.2634C33.122 48.0308 33.0492 48.1841 32.9595 48.2373Z" fill="#231F20"/>
<path d="M49.976 73.2014C37.1886 73.2014 26.7838 62.7967 26.7838 50.0074C26.7838 37.2206 37.1886 26.8171 49.976 26.8171C62.7646 26.8171 73.1683 37.2206 73.1683 50.0074C73.1683 62.7967 62.7646 73.2014 49.976 73.2014ZM49.9993 25C36.1932 25 25 36.1939 25 49.9988C25 63.8087 36.1932 75 49.9993 75C63.8069 75 75 63.8087 75 49.9988C75 36.1939 63.8069 25 49.9993 25Z" fill="#231F20"/>
<path d="M49.9244 36.0998C49.9118 36.1566 49.7937 36.4523 49.641 36.435C49.4981 36.3422 49.6235 36.2482 49.652 36.044C49.6802 35.7386 49.626 35.5048 49.5177 35.3366C49.4831 35.3021 49.424 35.2438 49.3895 35.2178C49.3699 35.2019 49.3454 35.187 49.2958 35.1906C49.2518 35.1931 49.2306 35.2352 49.2295 35.2834C49.238 35.4812 49.1912 35.6842 49.1839 35.73C49.1655 35.8301 49.1383 35.9661 49.0149 36.0366C48.935 36.0824 48.9844 35.814 48.9819 35.6568C48.9782 35.4999 48.9265 35.3069 48.8858 35.2178C48.8007 35.0347 48.5581 35.161 48.5581 35.161L48.3561 35.2562C48.133 35.4565 47.9852 35.7633 47.9852 36.1171C47.9852 36.5797 48.2217 36.8245 48.3967 36.9149C48.3894 36.9149 48.4497 36.9841 48.431 37.0496C48.4237 37.1277 48.3549 37.1338 48.346 37.1338C47.554 37.1338 47.1082 36.3779 47.1082 35.4467C47.1082 34.5141 47.7511 33.7595 48.5446 33.7595C49.3378 33.7595 49.981 34.5141 49.981 35.4467C49.981 35.6148 49.9648 35.9463 49.9244 36.0998ZM49.5425 33.7125C49.1468 33.4257 48.611 33.3526 48.2193 33.3787C48.1428 33.3959 47.6599 33.6322 47.5219 33.736C46.5834 34.4497 46.5858 36.3175 47.0908 36.8753C47.4063 37.2242 47.6192 37.4147 48.0666 37.495C48.5716 37.5866 49.1582 37.4605 49.4782 37.364C49.8097 37.2624 50.0694 36.8952 50.2592 36.5031C50.4835 36.0343 50.4924 35.1648 50.2298 34.5451C49.9672 34.1307 49.9859 34.0366 49.5425 33.7125Z" fill="#231F20"/>
<path d="M36.1479 50.7161C36.2277 51.1429 36.3682 51.0922 36.4964 51.1021C36.9003 51.1269 37.1149 50.6642 37.1271 50.5281C37.1344 50.392 37.2109 49.8936 37.2996 49.8317C37.3908 49.7674 37.1739 49.6325 36.9643 49.7118C36.9643 49.7118 36.0677 50.2845 36.1479 50.7161Z" fill="#231F20"/>
<path d="M65.7767 48.5255C65.8137 48.5627 65.8394 48.606 65.8495 48.6604C65.8606 48.7111 65.8654 48.7865 65.8654 48.8818V49.2764H66.0747C66.1562 49.2764 66.2176 49.2936 66.2596 49.332C66.3039 49.3704 66.3235 49.4187 66.3235 49.4792C66.3235 49.5534 66.2941 49.6067 66.235 49.6376C66.1735 49.6673 66.0848 49.6834 65.9713 49.6834H65.8654V50.7398C65.8654 50.8262 65.8679 50.8964 65.8752 50.945C65.8825 50.9918 65.8988 51.0317 65.9245 51.0612C65.9517 51.0921 65.9961 51.1069 66.0576 51.1069C66.0909 51.1069 66.1365 51.102 66.1956 51.0894C66.2509 51.0783 66.2966 51.0709 66.3272 51.0709C66.3755 51.0709 66.4172 51.0907 66.4542 51.1268C66.4912 51.1625 66.5083 51.2095 66.5083 51.2615C66.5083 51.3542 66.4594 51.4249 66.3581 51.4729C66.2571 51.5189 66.113 51.5447 65.9245 51.5447C65.7458 51.5447 65.6092 51.5152 65.518 51.4556C65.4244 51.3927 65.3638 51.3109 65.3357 51.2046C65.3072 51.0984 65.2938 50.9573 65.2938 50.7804V49.6834H65.2176C65.1362 49.6834 65.072 49.6635 65.0279 49.6251C64.9869 49.5869 64.9636 49.5374 64.9636 49.4792C64.9636 49.4187 64.9869 49.3704 65.0328 49.332C65.0769 49.2936 65.1436 49.2764 65.2298 49.2764H65.2938V48.9287C65.2938 48.8373 65.2962 48.7654 65.2987 48.7111C65.306 48.6604 65.3185 48.6134 65.3406 48.5762C65.3639 48.5367 65.3948 48.5058 65.4392 48.4811C65.4786 48.4563 65.5255 48.4439 65.5784 48.4439C65.6509 48.4439 65.7177 48.4711 65.7767 48.5255ZM66.7315 49.5484C66.7315 49.4421 66.7575 49.3604 66.804 49.3036C66.856 49.2466 66.9199 49.2208 67.0026 49.2208C67.08 49.2208 67.1443 49.2454 67.1972 49.2975C67.2502 49.3482 67.2747 49.4211 67.2747 49.5127V49.5671C67.3744 49.4483 67.4806 49.3643 67.5926 49.3085C67.7085 49.2517 67.8328 49.2245 67.972 49.2245C68.1137 49.2245 68.2379 49.2529 68.3417 49.3097C68.4451 49.3667 68.529 49.4519 68.5954 49.567C68.6915 49.4495 68.7962 49.3642 68.9057 49.3097C69.0168 49.2516 69.1401 49.2245 69.2729 49.2245C69.4308 49.2245 69.5648 49.2529 69.6783 49.316C69.7903 49.3766 69.8754 49.4632 69.9308 49.5769C69.9813 49.6809 70.0048 49.8442 70.0048 50.0657V51.1834C70.0048 51.3024 69.9751 51.3927 69.9234 51.4556C69.8668 51.5153 69.794 51.5447 69.7065 51.5447C69.6204 51.5447 69.5489 51.5152 69.4923 51.4532C69.4381 51.3927 69.4109 51.3011 69.4109 51.1823V50.2199C69.4109 50.0952 69.4047 49.9987 69.3937 49.9245C69.3836 49.8491 69.3567 49.7872 69.3086 49.7365C69.2631 49.6858 69.1939 49.6611 69.1002 49.6611C69.0241 49.6611 68.954 49.6834 68.8873 49.7304C68.8196 49.7723 68.7654 49.8318 68.7284 49.9096C68.6853 50.0073 68.6669 50.177 68.6669 50.4218V51.1822C68.6669 51.3024 68.6385 51.3926 68.5843 51.4531C68.529 51.5152 68.4585 51.5447 68.3686 51.5447C68.2826 51.5447 68.2135 51.5152 68.1581 51.4531C68.1051 51.3926 68.0779 51.3023 68.0779 51.1822V50.2697C68.0779 50.1258 68.073 50.0147 68.0632 49.9331C68.0546 49.854 68.0262 49.7883 67.9843 49.7389C67.9411 49.687 67.8735 49.661 67.7787 49.661C67.5901 49.661 67.468 49.7252 67.409 49.854C67.3487 49.9826 67.319 50.167 67.319 50.4079V51.1822C67.319 51.3011 67.2921 51.3926 67.2404 51.4531C67.1859 51.5152 67.1146 51.5447 67.0258 51.5447C66.9411 51.5447 66.8707 51.5152 66.8165 51.4531C66.7599 51.3926 66.7315 51.3023 66.7315 51.1834V49.5484ZM43.1191 34.0453C43.8572 34.0453 44.4545 34.7478 44.4545 35.6111C44.4545 35.7683 44.4399 36.0776 44.4028 36.221C44.3894 36.2704 44.281 36.5488 44.1403 36.5315C44.0062 36.4448 44.1231 36.3596 44.1467 36.1679C44.1749 35.8846 44.1244 35.6669 44.0246 35.5122C43.9916 35.4788 43.9359 35.4244 43.9053 35.3997C43.8878 35.3885 43.8646 35.3724 43.819 35.3762C43.7783 35.3787 43.7572 35.4182 43.7559 35.4603C43.7648 35.6446 43.7204 35.8351 43.7143 35.8772C43.6956 35.97 43.6724 36.0961 43.5564 36.1603C43.4839 36.2037 43.5307 35.9539 43.5258 35.8091C43.5234 35.6644 43.4766 35.485 43.4371 35.3997C43.3569 35.2314 43.1329 35.3478 43.1329 35.3478L42.9468 35.438C42.7373 35.6211 42.6017 35.9093 42.6017 36.2333C42.6017 36.6662 42.8211 36.8926 42.9836 36.9754C42.9763 36.9754 43.032 37.041 43.0158 37.1028C43.0084 37.1735 42.9444 37.1796 42.9356 37.1796C42.2002 37.1796 41.7862 36.4757 41.7862 35.6111C41.7862 34.7478 42.385 34.0453 43.1191 34.0453ZM31.6833 60.0458C31.9161 58.9314 32.1047 58.6654 32.3706 58.1854C32.6135 57.7467 34.0647 56.0422 36.0491 55.9579C37.5201 55.8925 39.1597 56.2179 40.3399 56.3835C41.3464 56.4415 41.6456 56.2078 41.8528 56.1152C42.3874 55.8688 42.8973 54.9809 43.161 55.2937C43.4224 55.6016 43.0527 56.2065 42.6512 56.6345C42.4563 56.841 42.1757 57.0576 41.9095 57.8082C41.7319 58.3031 41.2687 58.8423 40.5419 58.7151C40.2166 58.6579 40.2215 58.5455 40.0024 58.4899C39.6722 58.4045 39.4874 58.4454 39.204 58.5431C38.9837 58.6199 38.6865 59.1453 38.6079 59.2593C38.4723 59.451 38.2186 60.0173 38.1384 60.3181C38.0277 60.7375 38.0225 61.289 37.5742 62.3404C37.4561 62.615 36.8116 63.0761 36.4349 62.7026C36.1516 62.418 36.3337 61.4067 36.4888 60.8192C36.6393 60.2314 36.8116 59.9146 36.9732 59.6415C37.0998 59.425 37.3523 59.0949 37.4349 58.8734C37.4349 58.8734 37.5212 58.3674 37.1935 58.454C36.8609 58.5406 36.8633 58.6286 36.5456 58.8894C36.3287 59.0688 36.1736 59.383 35.9333 59.9853C35.7966 60.3291 35.6154 60.7436 35.3902 61.2087C35.1411 61.7267 34.8578 62.2859 34.582 62.4924C34.1533 62.8128 33.5471 62.3848 33.5618 61.9655C33.5756 61.508 33.6949 60.9242 33.8033 60.5752C33.9067 60.2351 34.0744 60.0348 34.2506 59.7229C34.4909 59.2951 34.6704 58.9883 34.8626 58.6853C35.124 58.277 34.7616 58.1732 34.5352 58.2844C34.3638 58.3636 34.3454 58.3366 33.9562 58.7237C33.7047 58.976 33.1998 59.9208 33.0198 60.4504C32.8228 61.0379 32.4262 61.2456 32.0639 61.0862C31.7941 60.9684 31.5933 60.4837 31.6833 60.0458ZM44.1219 56.7396C44.2575 56.7163 44.9684 56.9375 44.9684 56.9375C44.9684 56.9375 47.1869 57.8789 53.6103 57.5252C53.6103 57.5252 54.7585 57.1577 54.9381 57.6054C55.1181 58.0534 54.6572 58.7782 53.6596 58.945C53.4179 58.9846 52.961 59.0328 52.961 59.0328C52.961 59.0328 47.4568 59.2691 45.1211 58.4688C45.1211 58.4688 44.6936 58.3985 44.536 58.3985C44.3784 58.3985 43.267 58.3539 43.2918 57.5538C43.3137 56.7519 43.9879 56.762 44.1219 56.7396ZM45.4341 54.2908C45.4341 54.2908 48.5792 55.0982 53.566 54.8645C53.566 54.8645 54.6278 54.7001 54.6722 55.3121C54.719 55.926 54.6229 56.3946 53.9491 56.4676C53.274 56.538 53.2504 56.4007 52.8034 56.4195C50.6081 56.5098 47.4384 56.287 45.6915 55.9629C45.6915 55.9629 45.3169 55.812 44.9167 55.7278C44.5852 55.6574 44.1972 55.4915 44.2416 54.9957C44.2871 54.5035 44.6247 54.0779 45.4341 54.2908ZM47.1452 52.6913C47.4445 52.2486 48.2389 52.3724 48.2389 52.3724C48.2389 52.3724 49.0299 52.5565 50.6931 52.5801C52.3535 52.6035 52.982 52.3921 53.9255 52.4129C54.8692 52.4378 54.714 53.1921 54.5785 53.614C54.4429 54.0419 53.4992 53.8998 53.1617 53.8736C52.8266 53.8503 49.4562 53.8998 48.1973 53.8281C46.9406 53.7575 46.8815 53.0761 47.1452 52.6913ZM49.6851 51.0116C49.8259 50.6801 50.3999 50.5554 50.3999 50.5554C50.3999 50.5554 51.0946 50.4589 51.5677 50.3649C52.0383 50.2721 52.3844 50.23 52.7439 50.1347C53.1026 50.0408 53.4031 50.3883 53.4698 50.6949C53.5374 51.0031 53.7357 51.3988 53.3514 51.5091C53.1987 51.552 52.5285 51.6081 52.016 51.6845C51.7253 51.7278 50.395 51.9073 49.8357 51.8811C49.2739 51.8602 49.5474 51.3297 49.6851 51.0116ZM49.9746 28.0662C37.8763 28.0662 28.0332 37.9105 28.0332 50.0085C28.0332 62.1078 37.8763 71.9521 49.9746 71.9521C59.5367 71.9521 67.6837 65.8011 70.6835 57.253C69.9629 58.2672 68.6866 58.9661 67.4693 59.2061C65.3701 59.6252 63.9189 59.0601 63.414 58.9536C62.9113 58.8498 62.7191 59.0574 62.5493 59.3917C62.3754 59.7217 62.3237 59.9706 62.2041 60.2932C62.1255 60.5086 62.0242 61.154 61.9578 61.3993C61.8002 61.9953 61.7399 62.9465 60.7937 63.2285C60.2945 63.3778 60.0285 63.0516 60.0901 62.4208C60.1442 61.884 60.3351 60.9921 60.4426 60.6185C60.6421 59.9171 60.685 59.8267 60.685 59.6252C60.685 59.6252 60.6963 58.8983 60.3514 58.9883C60.005 59.0798 59.834 59.3455 59.654 59.8581C59.5368 60.1893 59.5738 60.2464 59.3707 60.9499C59.181 61.6093 59.1525 62.0088 59.0331 62.2339C58.8052 62.6643 58.3235 63.3025 57.9676 63.3569C57.5698 63.4153 57.3789 63.0058 57.3354 62.5974C57.2888 62.1224 57.3455 61.9866 57.3996 61.6984C57.4489 61.4581 57.4859 61.2938 57.6004 60.8326C57.7433 60.3379 57.8235 60.1213 57.9859 59.796C58.2656 59.2295 58.299 58.8226 57.9318 58.9883C57.7543 59.0712 57.4933 59.3296 57.0893 59.7331C56.8256 59.9975 56.3426 60.7238 56.1554 61.2778C55.9498 61.8889 55.2462 62.3577 54.8656 62.1918C54.5846 62.0695 54.4885 61.7552 54.5846 61.1973C54.7707 60.1038 55.0219 59.5858 55.3867 59.0822C55.6921 58.6603 57.2469 56.674 59.3189 56.5813C61.3938 56.4922 62.6392 57.2381 62.7708 56.8163C62.8841 56.4513 62.2066 55.7392 59.6381 55.6733C59.1108 55.6598 57.7791 55.8614 57.1163 56.3017C56.5902 56.6516 56.6309 57.0228 56.0235 56.7505C55.4185 56.4775 55.2536 56.1818 55.3411 55.0029C55.4275 53.8268 55.5122 52.7394 55.3411 52.2869C55.1686 51.8328 53.6104 50.3845 53.9589 49.5694C54.305 48.7542 54.8619 48.466 55.3213 47.6595C56.3155 45.9107 56.5495 43.1388 56.0321 42.5946C55.5122 42.0528 55.3411 42.4152 55.3411 42.8667C55.3411 43.3194 55.3546 46.4871 53.7998 47.7548C52.2428 49.0226 50.8125 48.7814 50.554 48.5997C50.2951 48.419 50.0797 48.5787 50.1656 48.9423C50.2544 49.3034 50.0895 49.8118 49.5695 50.2647C49.052 50.716 47.351 51.9428 44.7946 53.1625C44.3943 53.3493 43.7584 53.4815 43.3264 53.6634C42.8924 53.8428 42.7076 53.6806 42.1583 54.5465C41.8998 54.956 40.5937 55.5584 40.0754 55.4841C38.8198 55.306 38.5205 54.7531 38.608 54.2994C38.6561 54.0481 38.6068 53.6474 39.9236 53.1834C40.7024 52.9112 41.5534 52.1345 41.6743 51.7959C41.8713 51.2515 42.1299 50.3052 42.603 50.3685C42.9567 50.4164 43.6342 51.0128 44.1541 50.6518C44.6716 50.2893 44.7046 49.9021 44.8772 49.3578C45.0511 48.8148 45.4794 48.4487 45.8271 47.9972C46.1732 47.5434 45.9823 47.1363 45.9823 46.7753C45.9823 46.4127 46.1056 45.1301 46.6227 45.1301C47.1402 45.1301 47.6748 45.5655 48.658 45.6323C48.897 45.6497 49.6412 45.5878 49.6632 45.109C49.6828 44.7072 49.6139 43.0249 49.9588 42.2124C50.3064 41.396 51.1932 41.0558 51.5381 40.5115C51.8854 39.9686 51.521 38.6278 51.2376 38.9532C51.0182 39.203 50.5797 40.1777 50.1375 40.3978C49.572 40.6786 49.3823 40.613 49.0374 40.5227C48.6901 40.4324 48.4682 39.8932 48.1356 40.2864C47.9854 40.4646 48.318 40.7416 48.4943 40.8072C48.897 40.9568 49.0053 41.2734 48.9487 41.8721C48.8624 42.7763 49.3811 44.4968 47.9116 44.4968C46.4431 44.4968 46.183 44.0441 45.8394 44.2258C45.4921 44.4065 45.4057 44.4968 45.4057 44.9508C45.4057 45.4046 45.4256 46.6403 45.1668 47.2735C44.9054 47.9081 44.2353 50.2544 42.9874 49.7511C41.9378 49.3268 41.9849 49.2749 41.9096 49.1711C41.8356 49.0695 41.5179 49.0658 41.5461 49.2254C41.6018 49.5445 41.6954 49.4072 41.7126 49.7881C41.737 50.4215 41.4316 51.1103 41.0005 51.1103C40.5681 51.1103 40.3067 50.9248 39.9631 50.9248C39.6183 50.9248 39.5062 51.2465 39.4212 51.5162C39.4212 51.5162 38.9273 53.1004 37.3712 53.4641C35.8176 53.8267 35.2399 53.301 35.0749 53.0238C34.5969 52.2026 33.5697 51.7448 33.0522 51.4726C32.5323 51.1983 30.9111 50.4833 31.4111 49.2081C31.6403 48.6217 31.4334 48.7639 31.7563 48.2568C32.2685 47.4628 34.2643 46.3967 34.6955 46.0379C35.1242 45.6792 35.5407 44.9457 35.9027 43.7731C36.2675 42.5982 37.285 41.6903 37.8024 41.2363C38.3223 40.7836 39.6182 40.1504 40.0494 39.517C40.483 38.8813 40.9931 37.4687 41.1014 36.9146C41.1014 36.9171 41.136 36.7006 41.248 36.5571C41.3539 36.4247 41.4488 36.5101 41.498 36.6622C41.5623 36.8576 41.6743 36.979 41.7248 37.0358C41.88 37.2163 41.9491 37.251 42.1287 37.34C42.4739 37.5255 43.3114 37.6814 44.0902 37.2151C44.8069 36.6225 44.8105 36.0686 44.8687 35.502C44.924 34.9727 44.637 34.3591 44.0841 33.9869C43.8068 33.8025 43.4372 33.6801 42.9567 33.6801C41.9267 33.6801 41.5558 35.0221 41.3624 34.3034C41.2048 33.7148 41.4572 33.1073 41.6902 32.5941C42.469 30.8823 43.1094 29.983 44.058 30.1674C45.0091 30.3478 45.5807 32.3591 46.3568 32.3591C46.7201 32.3591 47.3939 32.2119 47.9768 31.8334C48.0961 31.7579 48.2096 31.6923 48.3204 31.6343C48.6506 31.3671 49.0855 30.8623 49.2972 30.6669C50.6464 29.4363 51.4594 30.6262 52.0629 31.0789C52.6666 31.5315 53.9589 33.4462 54.5611 33.539C55.1685 33.6281 55.6046 32.9763 56.1998 32.8588C57.0006 32.6992 57.6732 32.6323 57.5006 33.9002C57.3256 35.1692 57.2417 35.4414 57.5869 35.4414C57.9318 35.4414 58.7103 35.0776 58.968 35.7109C59.2277 36.3455 58.3642 36.9801 58.3642 37.4339C58.3642 37.8854 58.7978 38.0276 59.2277 38.0673C59.904 38.1278 60.0901 38.52 59.9199 38.9726C59.7464 39.4241 59.3141 39.6072 59.4866 39.9683C59.6589 40.3307 59.9199 40.5112 60.3514 40.5112C60.784 40.5112 61.3886 40.3307 61.5612 40.875C61.7335 41.4167 61.3026 42.5053 60.784 42.8664C60.2651 43.2288 60.0901 43.7729 60.5249 43.9535C60.9562 44.1354 61.906 44.1354 61.9936 44.7699C62.0786 45.4043 61.8198 45.8558 61.5612 46.1267C61.3026 46.3989 61.4749 46.943 61.906 47.1237C62.3397 47.3056 63.6332 47.5776 63.2883 48.4818C62.9447 49.3896 63.594 51.1449 62.5615 50.6797C61.9578 50.405 60.6421 50.5463 59.5282 50.8382C59.0209 50.9704 58.3434 51.4109 58.2889 51.6939C58.2189 52.0638 58.5809 51.9834 58.6757 51.9474C59.3287 51.7066 60.9722 51.3946 61.4134 51.4109C62.3274 51.4392 63.4275 51.7102 63.9784 52.0082C64.8407 52.477 65.1241 53.1524 65.1241 53.1524C65.1241 53.1524 67.0874 52.7167 68.6175 53.2068C69.9455 53.6322 71.1518 54.0799 71.2601 55.3353C71.6876 53.6297 71.9193 51.8459 71.9193 50.008C71.9192 37.9105 62.0761 28.0662 49.9746 28.0662Z" fill="#231F20"/>
<path d="M44.9154 55.7279C45.3169 55.8133 45.6914 55.9618 45.6914 55.9618C47.4384 56.2871 50.608 56.511 52.8033 56.4196C53.2504 56.4023 53.2728 56.5369 53.9478 56.4677C54.6229 56.3947 54.719 55.9261 54.6746 55.3122C54.6302 54.7014 53.5659 54.8646 53.5659 54.8646C48.5792 55.0983 45.4328 54.2908 45.4328 54.2908C44.6247 54.078 44.2871 54.5035 44.2415 54.9957C44.1972 55.4905 44.5852 55.6575 44.9154 55.7279Z" fill="white"/>
<path d="M44.5371 58.3986C44.6935 58.3986 45.1197 58.4677 45.1197 58.4677C47.458 59.2693 52.9609 59.033 52.9609 59.033C52.9609 59.033 53.4177 58.9847 53.6595 58.9451C54.6571 58.7784 55.1167 58.0535 54.9392 57.6055C54.7584 57.1567 53.6102 57.5253 53.6102 57.5253C47.1868 57.879 44.9683 56.9376 44.9683 56.9376C44.9683 56.9376 44.2574 56.7164 44.1218 56.7398C43.9863 56.7621 43.3137 56.752 43.2904 57.5539C43.2681 58.3539 44.3783 58.3986 44.5371 58.3986Z" fill="white"/>
<path d="M49.8356 51.8813C50.395 51.9075 51.7253 51.7293 52.0159 51.6847C52.5285 51.6083 53.1986 51.5522 53.3513 51.508C53.7357 51.399 53.5374 51.002 53.4698 50.6951C53.4031 50.3885 53.1038 50.0422 52.7439 50.1349C52.3843 50.2302 52.0382 50.2723 51.5676 50.3639C51.0945 50.4579 50.3999 50.5556 50.3999 50.5556C50.3999 50.5556 49.8259 50.6803 49.6851 51.0118C49.5474 51.3299 49.2738 51.8604 49.8356 51.8813Z" fill="white"/>
<path d="M48.1973 53.8283C49.4562 53.8987 52.8266 53.8492 53.1617 53.8751C53.4992 53.8987 54.4429 54.0422 54.576 53.6142C54.7116 53.1924 54.8692 52.4369 53.9255 52.4145C52.982 52.3923 52.3535 52.6037 50.6931 52.5804C49.0299 52.5568 48.2389 52.3715 48.2389 52.3715C48.2389 52.3715 47.4445 52.2502 47.1452 52.6916C46.8815 53.0762 46.9406 53.7564 48.1973 53.8283Z" fill="white"/>
<path d="M32.0639 61.0849C32.4262 61.2468 32.8228 61.038 33.0199 60.4504C33.1998 59.9208 33.7047 58.9761 33.9563 58.7238C34.3455 58.3354 34.3638 58.3636 34.5352 58.2831C34.7629 58.1719 35.124 58.2771 34.8627 58.6866C34.6705 58.9895 34.4909 59.2952 34.2507 59.7229C34.0744 60.0348 33.9067 60.2351 33.8033 60.5753C33.695 60.9231 33.5756 61.508 33.5619 61.9655C33.5472 62.3849 34.1534 62.8129 34.5821 62.4924C34.8578 62.286 35.1412 61.7279 35.3902 61.2088C35.6155 60.7448 35.7966 60.3304 35.9334 59.9853C36.1736 59.3831 36.3288 59.0688 36.5457 58.8906C36.8634 58.6286 36.8609 58.5406 37.1935 58.4541C37.5213 58.3674 37.4349 58.8735 37.4349 58.8735C37.3523 59.0949 37.0999 59.425 36.9732 59.6416C36.8129 59.9135 36.6393 60.2315 36.4888 60.818C36.3337 61.4067 36.1516 62.4194 36.435 62.7026C36.8117 63.0775 37.4561 62.6162 37.5742 62.3404C38.0226 61.2878 38.0277 60.7375 38.1385 60.3193C38.2187 60.0186 38.4724 59.4511 38.6079 59.2594C38.6866 59.1454 38.9837 58.62 39.204 58.5431C39.4874 58.4442 39.6722 58.4046 40.0024 58.4888C40.2215 58.5444 40.2166 58.658 40.5419 58.7152C41.2687 58.8437 41.732 58.3032 41.9095 57.807C42.1757 57.0589 42.4563 56.8411 42.6512 56.6346C43.0527 56.2078 43.4224 55.6016 43.1611 55.2937C42.8973 54.981 42.3874 55.8689 41.8529 56.1153C41.6457 56.2079 41.3464 56.4416 40.34 56.3823C39.1597 56.2179 37.5201 55.8926 36.0492 55.9567C34.0647 56.0422 32.6136 57.748 32.3706 58.1854C32.1047 58.6654 31.9162 58.9314 31.6834 60.0458C31.5933 60.4837 31.7952 60.9685 32.0639 61.0849Z" fill="white"/>
<path d="M48.5446 33.7598C47.7511 33.7598 47.1094 34.5143 47.1094 35.447C47.1094 36.377 47.5528 37.1341 48.3472 37.1341C48.3548 37.1341 48.4249 37.1292 48.4323 37.0499C48.4497 36.9845 48.3882 36.9151 48.3967 36.9151C48.2217 36.826 47.9852 36.5799 47.9852 36.1161C47.9852 35.7648 48.1318 35.458 48.3573 35.2577L48.5592 35.16C48.5592 35.16 48.8007 35.0349 48.887 35.2168C48.9265 35.3071 48.9782 35.5013 48.9806 35.6571C48.9855 35.8143 48.9363 36.0826 49.0149 36.0369C49.1383 35.9663 49.1667 35.8304 49.1839 35.7302C49.19 35.6857 49.238 35.4803 49.2295 35.2836C49.2295 35.2366 49.2518 35.1933 49.2958 35.1909C49.3454 35.1872 49.3699 35.2021 49.3895 35.2168C49.424 35.244 49.4831 35.3023 49.5177 35.3381C49.626 35.505 49.6777 35.7376 49.6508 36.0455C49.6235 36.2484 49.4981 36.3424 49.6422 36.434C49.7949 36.4538 49.9106 36.1568 49.9244 36.1C49.9648 35.9466 49.981 35.615 49.981 35.447C49.9809 34.5143 49.3365 33.7598 48.5446 33.7598Z" fill="white"/>
<path d="M42.9355 37.1797C42.9444 37.1797 43.0083 37.1736 43.0157 37.1043C43.0332 37.0412 42.9762 36.9756 42.9835 36.9756C42.8211 36.8928 42.6017 36.6651 42.6017 36.2335C42.6017 35.9095 42.736 35.6213 42.9456 35.4382L43.1317 35.348C43.1317 35.348 43.3581 35.2316 43.437 35.3999C43.4753 35.4852 43.5234 35.6646 43.527 35.8093C43.5295 35.954 43.4839 36.2038 43.5552 36.1617C43.6724 36.0963 43.698 35.9701 43.7131 35.8773C43.7204 35.8353 43.7647 35.6447 43.7547 35.4604C43.7571 35.4183 43.7782 35.3788 43.8202 35.3764C43.8657 35.3737 43.8866 35.3887 43.9052 35.3999C43.9371 35.4246 43.9903 35.479 44.0233 35.5123C44.1243 35.6658 44.1736 35.8834 44.1479 36.168C44.1218 36.3585 44.0062 36.445 44.1402 36.5316C44.2822 36.549 44.3881 36.2718 44.4028 36.2199C44.4398 36.0764 44.4545 35.7672 44.4545 35.6113C44.4545 34.7479 43.8556 34.0454 43.1191 34.0454C42.3849 34.0454 41.7861 34.7479 41.7861 35.6113C41.7862 36.4771 42.2002 37.1797 42.9355 37.1797Z" fill="white"/>
<path d="M33.1603 48.2636C33.1998 48.4923 32.8081 49.2159 32.6946 49.1392C32.6946 49.1392 32.0098 49.2913 32.1393 48.8807C32.2684 48.47 32.5162 48.3513 32.638 48.3315C32.7611 48.3094 32.8697 48.292 32.9609 48.2387C33.0493 48.1855 33.1233 48.0322 33.1603 48.2636ZM37.2997 49.8319C37.211 49.8938 37.1344 50.3922 37.1247 50.5271C37.1149 50.6656 36.9004 51.1259 36.4965 51.101C36.3683 51.0936 36.2278 51.1443 36.1479 50.7176C36.0677 50.2846 36.9643 49.7131 36.9643 49.7131C37.174 49.6326 37.3909 49.7688 37.2997 49.8319ZM50.2592 36.5033C50.0694 36.8965 49.8097 37.2638 49.4782 37.3654C49.1582 37.4606 48.5715 37.5868 48.0679 37.4952C47.6205 37.4148 47.405 37.2244 47.0896 36.8755C46.5859 36.3177 46.5834 34.45 47.5219 33.7362C47.66 33.6324 48.1428 33.3961 48.2193 33.3789C48.611 33.354 49.148 33.4259 49.5425 33.7127C49.9859 34.0368 49.9672 34.1308 50.2298 34.5439C50.4924 35.1649 50.4835 36.0332 50.2592 36.5033ZM71.26 55.3347C71.1517 54.0793 69.9454 53.6329 68.6173 53.2074C67.0872 52.7174 65.1239 53.153 65.1239 53.153C65.1239 53.153 64.8406 52.4764 63.9782 52.0089C63.4274 51.7108 62.3273 51.4386 61.4132 51.4116C60.972 51.3953 59.3286 51.7059 58.6755 51.948C58.5807 51.9856 58.2187 52.0632 58.2888 51.6945C58.3432 51.4116 59.0208 50.971 59.5281 50.8377C60.6419 50.5458 61.9577 50.407 62.5614 50.6803C63.5939 51.1467 62.9445 49.389 63.2882 48.4825C63.633 47.5771 62.3395 47.305 61.9059 47.1255C61.4747 46.9437 61.3025 46.3995 61.5611 46.1285C61.8197 45.8565 62.0785 45.405 61.9934 44.7693C61.9059 44.136 60.9561 44.136 60.5247 43.9529C60.0899 43.7723 60.265 43.2294 60.7838 42.8682C61.3025 42.5058 61.7333 41.4173 61.5611 40.8756C61.3885 40.3326 60.7838 40.5118 60.3513 40.5118C59.9198 40.5118 59.6587 40.3325 59.4865 39.9689C59.3139 39.6065 59.7463 39.4259 59.9198 38.9732C60.0899 38.5218 59.9039 38.1284 59.2276 38.0666C58.7976 38.0282 58.364 37.886 58.364 37.4332C58.364 36.9794 59.2276 36.3461 58.9678 35.7115C58.7101 35.0782 57.9317 35.4406 57.5868 35.4406C57.2416 35.4406 57.3254 35.1686 57.5005 33.9008C57.6731 32.6317 57.0005 32.6998 56.1996 32.8581C55.6044 32.9768 55.1684 33.6299 54.561 33.5383C53.9587 33.4468 52.6664 31.5321 52.0627 31.0807C51.4593 30.6268 50.6462 29.4368 49.297 30.6687C49.0853 30.8617 48.6504 31.3677 48.3203 31.6336C48.2095 31.6917 48.096 31.7585 47.9766 31.8352C47.3937 32.2112 46.7199 32.3609 46.3566 32.3609C45.5806 32.3609 45.009 30.3496 44.0579 30.1666C43.1092 29.9848 42.4688 30.8828 41.69 32.5934C41.4571 33.1067 41.2047 33.7141 41.3623 34.3052C41.5556 35.0227 41.9265 33.6806 42.9566 33.6806C43.437 33.6806 43.8067 33.8018 44.0839 33.9874C44.6369 34.3609 44.9239 34.9732 44.8685 35.5026C44.8104 36.0692 44.8067 36.6245 44.09 37.2156C43.3112 37.682 42.4737 37.5273 42.1285 37.3393C41.9489 37.2515 41.8798 37.2182 41.7246 37.0363C41.6741 36.9782 41.5621 36.8569 41.4979 36.6627C41.4486 36.5106 41.3537 36.4264 41.2479 36.5576C41.1359 36.7011 41.1013 36.9163 41.1013 36.9139C40.993 37.4704 40.4828 38.8818 40.0492 39.5162C39.6181 40.1508 38.3221 40.7841 37.8022 41.2368C37.2848 41.6907 36.2673 42.5999 35.9026 43.7723C35.5406 44.9461 35.1241 45.6784 34.6953 46.0383C34.2642 46.3983 32.2684 47.4619 31.7561 48.2572C31.4333 48.7656 31.6402 48.6208 31.411 49.2073C30.911 50.4837 32.5322 51.1987 33.0521 51.473C33.5696 51.7452 34.5968 52.2042 35.0748 53.0242C35.2397 53.3026 35.8175 53.8283 37.3711 53.4645C38.9271 53.102 39.421 51.5178 39.421 51.5178C39.5061 51.2469 39.6181 50.9264 39.963 50.9264C40.3066 50.9264 40.5679 51.1095 41.0003 51.1095C41.4315 51.1095 41.7369 50.4219 41.7124 49.7885C41.6952 49.4088 41.6016 49.5437 41.5459 49.2258C41.5178 49.065 41.8354 49.0687 41.9095 49.1701C41.9847 49.2741 41.9376 49.3272 42.9872 49.7503C44.2351 50.256 44.9053 47.9073 45.1666 47.2727C45.4255 46.6394 45.4056 45.4049 45.4056 44.9512C45.4056 44.4984 45.4919 44.4069 45.8392 44.2276C46.1828 44.0445 46.443 44.4984 47.9115 44.4984C49.381 44.4984 48.8623 42.7767 48.9485 41.8724C49.0052 41.275 48.8968 40.9584 48.4941 40.8088C48.3179 40.7419 47.9852 40.4636 48.1354 40.2855C48.4681 39.8947 48.6899 40.4339 49.0373 40.523C49.3821 40.6133 49.5718 40.6777 50.1374 40.3969C50.5796 40.1768 51.018 39.2033 51.2375 38.9535C51.5208 38.6293 51.8853 39.9689 51.538 40.5118C51.1931 41.0561 50.3063 41.3964 49.9587 42.2127C49.6138 43.0266 49.6826 44.7087 49.6631 45.1081C49.641 45.5881 48.8968 45.65 48.6578 45.6326C47.6746 45.5646 47.1401 45.1316 46.6226 45.1316C46.1054 45.1316 45.9821 46.4118 45.9821 46.7743C45.9821 47.1379 46.173 47.5424 45.8269 47.9962C45.4793 48.4502 45.0509 48.815 44.8771 49.3593C44.7045 49.9023 44.6715 50.2896 44.154 50.652C43.6341 51.013 42.9566 50.4167 42.6028 50.3687C42.1298 50.3067 41.8712 51.2529 41.6741 51.7962C41.5532 52.1347 40.7022 52.9115 39.9234 53.1837C38.6067 53.6464 38.6559 54.0496 38.6079 54.2996C38.5204 54.7534 38.8196 55.3074 40.0752 55.4844C40.5936 55.5587 41.8996 54.9563 42.1582 54.5455C42.7075 53.6821 42.8923 53.8443 43.3262 53.6637C43.7583 53.4806 44.3942 53.351 44.7944 53.1617C47.3508 51.9444 49.0519 50.7176 49.5694 50.265C50.0893 49.8121 50.2542 49.3038 50.1655 48.9426C50.0795 48.579 50.2949 48.4182 50.5538 48.6001C50.8124 48.7818 52.2427 49.023 53.7997 47.7539C55.3545 46.4863 55.341 43.3198 55.341 42.8683C55.341 42.4144 55.5121 42.0532 56.032 42.5963C56.5494 43.1392 56.3153 45.9111 55.3211 47.6599C54.8617 48.4664 54.3048 48.7546 53.9587 49.571C53.6102 50.3836 55.1684 51.8344 55.341 52.2873C55.5121 52.7398 55.4273 53.8284 55.341 55.0046C55.2535 56.181 55.4184 56.479 56.0234 56.7509C56.6308 57.0232 56.5901 56.6519 57.1161 56.3008C57.7789 55.8617 59.1107 55.6601 59.6379 55.6737C62.2064 55.7407 62.8839 56.4516 62.7707 56.8167C62.6391 57.2373 61.3937 56.4914 59.3188 56.5828C57.2468 56.6744 55.692 58.6595 55.3865 59.0814C55.0218 59.5863 54.7706 60.1054 54.5845 61.1977C54.4884 61.7569 54.5845 62.0711 54.8654 62.1922C55.2461 62.3581 55.9496 61.8881 56.1552 61.2782C56.3425 60.7242 56.8254 59.9991 57.0892 59.7334C57.4931 59.3312 57.7541 59.0716 57.9317 58.9887C58.2989 58.823 58.2655 59.2299 57.9858 59.7976C57.8233 60.123 57.7431 60.3368 57.6002 60.833C57.4858 61.2942 57.4488 61.4585 57.3995 61.7C57.3453 61.987 57.2887 62.124 57.3352 62.5978C57.3787 63.0073 57.5696 63.4144 57.9674 63.3561C58.3233 63.3029 58.805 62.6635 59.033 62.2355C59.1523 62.0091 59.1808 61.6084 59.3705 60.9516C59.5737 60.2468 59.5367 60.1896 59.6539 59.8585C59.8339 59.3448 60.0049 59.0802 60.3513 58.9887C60.6961 58.8986 60.6848 59.6243 60.6848 59.6243C60.6848 59.8259 60.642 59.9175 60.4424 60.6189C60.335 60.9913 60.1441 61.8844 60.0899 62.4212C60.0284 63.0519 60.2943 63.3782 60.7936 63.2301C61.7398 62.9468 61.8 61.9944 61.9576 61.3996C62.024 61.1544 62.1253 60.5076 62.2039 60.2922C62.3236 59.9709 62.3753 59.722 62.5491 59.392C62.7189 59.0577 62.9111 58.85 63.4139 58.9539C63.9188 59.0604 65.3699 59.6243 67.4691 59.2052C68.6864 58.9653 69.9628 58.2675 70.6834 57.252C67.6836 65.8014 59.5366 71.9511 49.9745 71.9511C37.8761 71.9511 28.0331 62.1068 28.0331 50.0076C28.0331 37.9109 37.8761 28.0665 49.9745 28.0665C62.076 28.0665 71.9191 37.9109 71.9191 50.0076C71.9192 51.8455 71.6875 53.6304 71.26 55.3347ZM49.9746 26.8171C37.1874 26.8171 26.7839 37.2219 26.7839 50.0075C26.7839 62.7968 37.1874 73.2015 49.9746 73.2015C62.7658 73.2015 73.1683 62.7968 73.1683 50.0075C73.1683 37.2219 62.7658 26.8171 49.9746 26.8171Z" fill="white"/>
<path d="M65.3406 48.5761C65.3185 48.6133 65.306 48.6603 65.3011 48.7122C65.295 48.7654 65.2925 48.8373 65.2925 48.9287V49.2763H65.231C65.1435 49.2763 65.0768 49.2936 65.0315 49.332C64.9856 49.3704 64.9636 49.4186 64.9636 49.4792C64.9636 49.5374 64.9856 49.5868 65.0291 49.6238C65.0732 49.6635 65.135 49.6833 65.2189 49.6833H65.2926V50.7803C65.2926 50.9573 65.3085 51.0996 65.337 51.2046C65.3627 51.3109 65.4245 51.3939 65.5181 51.4556C65.6081 51.5152 65.7459 51.5447 65.9246 51.5447C66.1131 51.5447 66.2572 51.5189 66.3582 51.4716C66.4594 51.4249 66.5084 51.3542 66.5084 51.2614C66.5084 51.2083 66.4901 51.1625 66.453 51.1268C66.4173 51.0906 66.3756 51.0722 66.3288 51.0722C66.2967 51.0722 66.2524 51.0782 66.1957 51.0893C66.1379 51.1007 66.0923 51.1056 66.0577 51.1056C65.9962 51.1056 65.9518 51.092 65.9246 51.0611C65.8977 51.0315 65.8827 50.9928 65.8741 50.9437C65.868 50.8964 65.8655 50.826 65.8655 50.7397V49.6833H65.9727C66.085 49.6833 66.1725 49.6672 66.234 49.6375C66.2931 49.6066 66.3237 49.5533 66.3237 49.4791C66.3237 49.4186 66.304 49.3703 66.2597 49.3319C66.2178 49.2935 66.1563 49.2763 66.0761 49.2763H65.8656V48.8817C65.8656 48.7864 65.8607 48.7122 65.8509 48.6603C65.8383 48.6059 65.8138 48.5626 65.7768 48.5266C65.7166 48.471 65.651 48.4438 65.5773 48.4438C65.5256 48.4438 65.4788 48.4563 65.4381 48.481C65.3947 48.5058 65.3626 48.5367 65.3406 48.5761Z" fill="white"/>
<path d="M67.0258 51.5449C67.1146 51.5449 67.1859 51.5154 67.2391 51.4533C67.2921 51.3928 67.319 51.3013 67.319 51.1824V50.4081C67.319 50.1672 67.3487 49.9828 67.409 49.8554C67.4668 49.7254 67.5902 49.6612 67.7787 49.6612C67.8723 49.6612 67.9424 49.6872 67.9831 49.7391C68.0275 49.7885 68.0535 49.8553 68.0633 49.9345C68.0731 50.0148 68.0792 50.126 68.0792 50.2699V51.1824C68.0792 51.3026 68.1052 51.3941 68.1594 51.4533C68.2136 51.5154 68.2827 51.5449 68.3687 51.5449C68.4587 51.5449 68.5291 51.5154 68.5833 51.4533C68.6399 51.3941 68.6671 51.3025 68.6671 51.1824V50.4232C68.6671 50.1771 68.6867 50.0075 68.7286 49.9098C68.7656 49.8319 68.8198 49.7737 68.8862 49.7292C68.9553 49.6835 69.0254 49.6612 69.1003 49.6612C69.1928 49.6612 69.2632 49.686 69.31 49.7366C69.3556 49.7885 69.3849 49.8492 69.395 49.9247C69.4036 49.9977 69.4109 50.0953 69.4109 50.2201V51.1824C69.4109 51.3013 69.4382 51.3928 69.4935 51.4533C69.5477 51.5154 69.6193 51.5449 69.7065 51.5449C69.7952 51.5449 69.868 51.5154 69.9222 51.4558C69.9764 51.3941 70.0048 51.3025 70.0048 51.1836V50.0658C70.0048 49.8443 69.98 49.6796 69.9308 49.577C69.8754 49.4633 69.7903 49.3767 69.6796 49.3162C69.5648 49.2543 69.4308 49.2246 69.2729 49.2246C69.1401 49.2246 69.018 49.2518 68.9057 49.3086C68.7949 49.3632 68.6915 49.4497 68.5966 49.5672C68.5289 49.4521 68.4439 49.3669 68.3416 49.3099C68.2379 49.2531 68.1149 49.2247 67.9708 49.2247C67.8327 49.2247 67.7073 49.2519 67.5926 49.3074C67.4793 49.3632 67.3732 49.4485 67.2747 49.5672V49.5128C67.2747 49.4213 67.2489 49.3495 67.196 49.2988C67.1443 49.2455 67.0801 49.2209 67.0014 49.2209C66.9212 49.2209 66.856 49.2468 66.804 49.3037C66.7575 49.3593 66.7327 49.4423 66.7327 49.5486V51.1835C66.7327 51.3025 66.7599 51.394 66.8153 51.4533C66.8707 51.5154 66.9399 51.5449 67.0258 51.5449Z" fill="white"/>
</g>
<defs>
<clipPath id="clip0_146_2288">
<rect width="50" height="50" fill="white" transform="translate(25 25)"/>
</clipPath>
</defs>
</svg>
