<svg width="100" height="100" viewBox="0 0 100 100" fill="none" xmlns="http://www.w3.org/2000/svg">
<rect width="100" height="100" rx="50" fill="#EFF0F1"/>
<path d="M54.5208 28.172V28.005C54.5208 27.2259 54.849 26.5303 55.5052 25.9182C56.1615 25.3061 57 25 58.0208 25C59.0417 25 59.9531 25.2504 60.7552 25.7513C61.5573 26.2521 61.9948 26.9199 62.0677 27.7546C62.1406 28.5893 61.8125 29.2849 61.0833 29.8414C60.3542 30.3979 59.4792 30.6761 58.4583 30.6761L57.8021 30.8431L58.0208 31.0935L57.8021 32.0117L57.3646 34.6828C57.5104 34.7941 57.5833 34.9054 57.5833 35.0167L57.1458 36.6861C57 36.9087 56.8542 37.0757 56.7083 37.187L56.4896 37.8548C56.1979 38.7451 55.9427 39.4686 55.724 40.025C55.5052 40.5815 55.3229 41.0267 55.1771 41.3606V41.6945C55.0312 42.251 54.9219 42.6962 54.849 43.0301C54.776 43.3639 54.5208 43.9204 54.0833 44.6995C53.7917 45.1447 53.7917 45.8681 54.0833 46.8698L54.3021 47.0367C54.3021 47.3706 54.4844 47.7602 54.849 48.2053C55.2135 48.6505 55.3958 49.0401 55.3958 49.374C55.5417 51.5999 55.3229 53.4919 54.7396 55.0501L55.1771 56.0518C56.9271 56.7195 57.4375 57.443 56.7083 58.222L57.8021 58.5559C59.5521 59.2237 60.7917 59.808 61.5208 60.3088C62.25 60.8097 62.9792 61.3383 63.7083 61.8948C64.2917 62.0061 64.7292 62.1731 65.0208 62.3957L65.6771 62.5626C68.7396 64.1208 71.8021 66.0128 74.8646 68.2387L75.7396 68.7396V68.9065L75.5208 69.2404L76.1771 69.5743H76.3958C76.8333 69.7969 77.125 69.9082 77.2708 69.9082H77.4896C77.6354 69.9082 77.7812 69.8525 77.9271 69.7412L78.3646 69.5743C78.6563 69.3517 78.9479 69.1848 79.2396 69.0735H80.1146C80.2604 69.0735 80.2604 69.1291 80.1146 69.2404L79.2396 69.5743L78.1458 70.576H79.6771L81.2083 70.7429C81.6458 70.6316 82.0104 70.5203 82.3021 70.409L83.3958 69.9082C83.8333 69.7969 84.2708 69.9082 84.7083 70.2421H84.9271C85.0729 70.3534 85 70.5203 84.7083 70.7429L82.0833 72.5793C81.3542 73.0245 80.6979 73.3027 80.1146 73.414L77.2708 74.9165C77.125 75.0278 76.9792 75.0278 76.8333 74.9165L76.1771 74.2487L75.7396 73.581L75.1927 72.9967L74.5365 72.3289L73.9896 71.828L73.5521 71.4107L72.6771 70.9098C72.3854 70.9098 72.0937 70.8542 71.8021 70.7429L68.9583 69.0735C68.5208 69.0735 68.0104 68.9065 67.4271 68.5726C65.2396 67.1258 63.7812 66.2354 63.0521 65.9015L61.7396 65.2337L59.1146 64.8998C58.2396 64.7885 57.0729 64.4546 55.6146 63.8982L53.8646 63.2304C52.6979 62.7852 51.8958 62.5626 51.4583 62.5626L50.5833 62.2287C50 62.1174 49.5625 62.0061 49.2708 61.8948L48.8333 61.5609C48.5417 61.5609 48.25 61.6166 47.9583 61.7279L43.5833 63.3973L38.1146 65.2337C36.6562 66.1241 35.2708 66.8475 33.9583 67.404L31.5521 68.2387L27.8333 70.2421C27.5417 70.4647 27.25 70.4647 26.9583 70.2421L26.5208 70.576C26.0833 70.6873 25.7917 70.7429 25.6458 70.7429L24.7708 71.0768V71.4107H24.3333L23.8958 71.9115C23.6042 72.3567 23.3125 72.6071 23.0208 72.6628C22.7292 72.7184 22.5469 72.8019 22.474 72.9132C22.401 73.0245 22.3281 73.108 22.2552 73.1636L21.8177 73.4975L21.1615 73.8314L20.1771 73.7479L18.8646 73.9149L17.9896 74.0818C17.2604 74.1931 16.6771 74.1096 16.2396 73.8314C15.8021 73.5531 15.4375 73.1358 15.1458 72.5793C14.8542 72.2454 15 71.9672 15.5833 71.7446L15.8021 71.5776C15.9479 71.4663 16.1667 71.4107 16.4583 71.4107H17.7708L19.5208 70.9098L20.3958 70.7429C20.3958 70.5203 20.4688 70.3534 20.6146 70.2421C20.7604 70.1308 20.9792 70.0751 21.2708 70.0751V69.9082C21.125 69.6856 21.0521 69.463 21.0521 69.2404C20.9062 69.0178 20.8698 68.8509 20.9427 68.7396C21.0156 68.6283 21.0885 68.5726 21.1615 68.5726H21.2708L21.4896 69.0735C21.6354 69.6299 21.8542 69.7969 22.1458 69.5743L22.3646 69.2404C22.5104 69.0178 22.7292 68.9065 23.0208 68.9065L23.4583 69.2404L23.8958 68.9065L23.6771 68.7396C23.6771 68.6283 23.75 68.5726 23.8958 68.5726L24.7708 67.9048C25.5 67.2371 26.375 66.6249 27.3958 66.0684C29.4375 64.8442 31.625 63.8982 33.9583 63.2304C34.6875 62.6739 35.4896 62.3957 36.3646 62.3957C36.9479 61.6166 37.8229 60.7819 38.9896 59.8915C40.0104 59.335 40.7396 58.9455 41.1771 58.7229C41.4688 58.2777 41.8333 58.0551 42.2708 58.0551H42.4896L42.9271 57.7212C43.2188 57.6099 43.4375 57.4986 43.5833 57.3873V56.5526C43.5833 55.9961 43.6562 55.5509 43.8021 55.217C43.9479 54.8831 44.3125 54.7162 44.8958 54.7162L45.7708 54.0484C45.4792 53.6032 45.3333 53.1024 45.3333 52.5459H45.1146C44.8229 52.212 44.6771 51.8781 44.6771 51.5442C44.2396 50.9878 43.9479 50.5426 43.8021 50.2087H43.1458C43 50.5426 42.6354 50.7652 42.0521 50.8765L41.8333 51.2103C41.25 51.9894 40.7396 52.5737 40.3021 52.9633C39.8646 53.3528 39.0625 53.8258 37.8958 54.3823C37.1667 54.9388 36.6562 55.5509 36.3646 56.2187C36.2188 56.5526 36.2188 56.8865 36.3646 57.2204L36.1458 57.5543H36.3646C36.3646 57.7769 36.4375 57.8881 36.5833 57.8881H36.8021C37.0938 57.9994 37.2396 58.1386 37.2396 58.3055C37.2396 58.4725 37.0208 58.5281 36.5833 58.4725C36.1458 58.4168 35.8177 58.3055 35.599 58.1386C35.3802 57.9716 35.1979 57.8881 35.0521 57.8881L34.3958 58.389C34.1042 58.7229 33.8125 58.862 33.5208 58.8063C33.2292 58.7507 33.1562 58.6672 33.3021 58.5559L33.5208 58.389C33.6667 58.1664 33.6667 58.0551 33.5208 58.0551L31.7708 58.389C31.625 58.5003 31.4427 58.5003 31.224 58.389C31.0052 58.2777 31.0417 58.1664 31.3333 58.0551L32.4271 57.7212C32.4271 57.6099 32.3542 57.5543 32.2083 57.5543C31.625 57.7769 31.0417 57.8325 30.4583 57.7212L29.3646 57.5543L29.1458 57.3873C29.1458 57.276 29.2187 57.2204 29.3646 57.2204C29.9479 57.3317 30.6771 57.276 31.5521 57.0534L33.0833 56.5526L34.8333 55.0501L35.0521 54.7162C35.6354 53.8258 36.2552 53.0189 36.9115 52.2955C37.5677 51.5721 38.2604 50.9878 38.9896 50.5426L39.2083 49.8748C39.5 49.4296 39.7917 49.0401 40.0833 48.7062C40.375 48.3723 40.7396 47.9271 41.1771 47.3706L41.8333 46.7028C42.4167 46.0351 43.0729 45.7012 43.8021 45.7012L44.4583 45.2003C44.6042 45.089 44.6771 44.9221 44.6771 44.6995L45.1146 44.3656L44.8958 44.1987C44.0208 43.6422 43.5833 43.1413 43.5833 42.6962C43.4375 41.9171 43.7656 41.2493 44.5677 40.6928C45.3698 40.1363 46.1719 39.8859 46.974 39.9416C47.776 39.9972 48.3958 40.192 48.8333 40.5259L49.2708 40.8598C49.4167 40.8598 49.4896 40.9154 49.4896 41.0267L50.3646 41.3606V41.8614C50.6562 42.084 50.8021 42.251 50.8021 42.3623C51.0938 42.0284 51.5312 41.6388 52.1146 41.1937L53.2083 38.5225C53.2083 38.0773 53.3542 37.6322 53.6458 37.187L54.0833 36.6861V36.3523L54.7396 34.3489H55.1771L55.8333 32.3456C55.9792 32.0117 55.9792 31.6221 55.8333 31.177L54.9583 29.5075L54.5208 28.172Z" fill="#111111"/>
</svg>
