<svg width="100" height="100" viewBox="0 0 100 100" fill="none" xmlns="http://www.w3.org/2000/svg">
<rect width="100" height="100" rx="50" fill="#EFF0F1"/>
<path d="M50.4216 44.1277L53.1997 37.4166L62.6342 36.5777L62.9643 35.7579L54.2449 34.919L56.2941 30.0191H72.4676C77.4462 30.0191 81.1182 32.4976 79.6879 39.7235C79.2616 41.9352 77.2399 47.4643 71.2986 49.7712C72.5639 49.9809 75.6996 51.9066 75.1494 56.9018C74.1867 65.7674 65.9212 69.9809 61.3139 69.9809L42.2111 70L41.2621 64.8713L51.2743 63.899L51.6181 63.0791L40.7532 62.164L39.5842 56.082L55.0288 54.8236L55.3727 54.0229L27.6329 51.6206L28.9669 48.4175L58.8384 45.7293L59.1822 44.9285L50.4216 44.1277ZM62.923 45.4623L65.6736 45.4433C67.5165 45.4242 69.4282 44.2612 70.1296 41.9161C70.776 39.7235 69.9096 37.8551 68.7543 37.8742H66.0862L62.923 45.4623ZM59.7461 53.0696L56.4316 61.0581H59.5948C61.0664 61.0581 63.6932 60.0477 64.5046 57.1497C65.2611 54.4423 63.872 53.0696 62.9093 53.0696H59.7461ZM35.6509 65.4051L33.7255 69.9619L20 70L21.334 66.7969L35.6509 65.4051ZM36.6136 30L47.6572 30.0191L48.4962 34.347L35.3071 33.2031L36.6136 30ZM49.1151 37.7788L50.3253 44.1277L31.47 42.4118L32.7903 39.2278L49.1151 37.7788ZM39.5155 56.082L37.1225 61.8398L23.8233 60.7912L25.1574 57.5882L39.5155 56.082Z" fill="black"/>
</svg>
