<svg width="100" height="100" viewBox="0 0 100 100" fill="none" xmlns="http://www.w3.org/2000/svg">
<rect width="100" height="100" rx="50" fill="#EFF0F1"/>
<path d="M58.5421 50C58.3371 50.2004 58.0638 50.4008 57.7563 50.6413C55.7745 52.2846 52.8702 53.4469 49.1116 53.4469H48.8724C45.1139 53.4469 42.2096 52.3246 40.2278 50.6413C39.9203 50.4008 39.6469 50.1603 39.4419 50C39.6469 49.7996 39.9203 49.5992 40.2278 49.3186C42.2096 47.6754 45.1139 46.513 48.8724 46.513H49.1116C52.8702 46.513 55.7745 47.6353 57.7563 49.3186C58.0638 49.5992 58.303 49.8397 58.5421 50ZM77.9499 36.3727C77.9499 36.3727 76.2415 34.8497 70.8428 32.5251C66.0934 30.4409 62.5057 30 62.5057 30V42.024C62.5057 43.7074 62.1298 45.2705 61.0023 47.0341C56.9704 45.3106 53.1435 44.2285 48.9749 44.2285C44.8064 44.2285 40.9795 45.2705 36.9476 47.0341C35.8542 45.2705 35.4442 43.7074 35.4442 42.024V30C35.4442 30 31.8223 30.4409 27.0729 32.485C21.7084 34.8497 20 36.3727 20 36.3727C20.2392 41.8236 24.3052 46.6733 30.6948 50.0401C24.3052 53.3667 20.205 58.2164 20 63.6673C20 63.6673 21.7084 65.1904 27.1071 67.515C31.8565 69.5591 35.4442 70 35.4442 70L35.41 57.976C35.41 56.2926 35.82 54.7295 36.9134 52.9659C40.9453 54.6894 44.7722 55.7315 48.9408 55.7315C53.1093 55.7315 56.9362 54.6894 60.9681 52.9659C62.0615 54.7295 62.4715 56.2525 62.4715 57.976V70C62.4715 70 66.0592 69.5591 70.8087 67.515C76.2073 65.1904 77.9157 63.6673 77.9157 63.6673C77.6765 58.2164 73.6105 53.3667 67.221 50C73.6446 46.6733 77.7107 41.8236 77.9499 36.3727ZM79.8633 62.2244C79.8633 62.505 79.7267 62.7856 79.4875 62.8657C79.2483 62.986 79.0091 62.9058 78.8383 62.7054C78.6674 62.505 78.5991 62.1844 78.7016 61.9439C78.8041 61.6633 79.0091 61.503 79.2483 61.503C79.4191 61.503 79.5558 61.5832 79.6583 61.7034C79.795 61.8637 79.8633 62.024 79.8633 62.2244ZM80 62.2244C80 61.8637 79.8292 61.5832 79.5558 61.4228C79.2825 61.3026 78.9749 61.3427 78.7699 61.6232C78.5649 61.8637 78.4966 62.2244 78.5991 62.5451C78.7016 62.8657 78.9749 63.0661 79.2825 63.0661C79.6583 63.0661 80 62.7054 80 62.2244Z" fill="#0C0D0D"/>
<path d="M79.4191 62.6254H79.5557L79.3507 62.2647C79.3849 62.2647 79.4532 62.2246 79.4874 62.1845C79.5216 62.1444 79.5216 62.0643 79.5216 62.0242C79.5216 61.9039 79.4532 61.7837 79.2824 61.7837H79.0432V62.5853H79.1457V62.2246H79.2141L79.4191 62.6254ZM79.1115 61.9039H79.2141C79.3166 61.9039 79.3507 61.944 79.3507 62.0242C79.3507 62.1043 79.3166 62.1444 79.2141 62.1444H79.1115C79.1115 62.1845 79.1115 61.9039 79.1115 61.9039Z" fill="#0C0D0D"/>
</svg>
