<svg width="100" height="100" viewBox="0 0 100 100" fill="none" xmlns="http://www.w3.org/2000/svg">
<rect width="100" height="100" rx="50" fill="#EFF0F1"/>
<g clip-path="url(#clip0_146_2285)">
<path d="M43.0543 70.1715H59.3424C64.4783 70.1715 67.2663 65.7677 68.4891 63.1355L69.2228 61.2627H72.2065L66.4837 72.5H27.6467L28.6739 70.1209H30.1413C30.1902 70.1209 30.1902 70.1209 30.2391 70.1209C30.4348 70.1209 30.6304 70.1209 30.8261 70.1209H31.9511C33.8098 70.0703 35.8152 69.4629 37.1848 65.869C37.3315 65.5146 37.4293 65.2109 37.5761 64.9578L41.4402 54.7328L33.125 34.7385C32.9293 34.4348 32.7826 34.0298 32.587 33.6249C31.5598 31.1445 30.0435 30.3853 28.9185 30.1322H27.5V27.5H40.9511V30.1322H40.3152C40.2663 30.1322 40.2174 30.1322 40.2174 30.1322C39.0924 30.1322 37.9185 30.1828 38.6522 31.9544C38.7011 32.0557 38.7011 32.1569 38.75 32.2075L44.6685 46.3808L47.8967 37.8262C48.288 36.4595 47.6522 36.0039 47.0163 35.9027H45.4022L46.625 32.9668H60.6141L59.3913 35.9027H57.1902C56.212 36.1558 54.9402 36.9657 53.8641 39.1929L47.9946 54.4291L50.9783 61.5157L51.0272 61.5664C51.1739 61.9713 51.4185 62.1738 51.7609 61.5664C51.7609 61.5158 51.8098 61.5157 51.8098 61.4651L63.5 34.8397C63.5978 34.536 63.7446 34.1817 63.9402 33.7767C65.163 30.9927 63.9402 30.284 62.962 30.1322H61.25V27.5H72.5V30.1322H70.6413C69.9076 30.284 68.7826 30.7396 67.7554 32.3088L52.2011 67.7925L46.9185 67.6912L44.8152 62.7306L42.3696 69.1085C42.3696 69.1592 42.3696 69.2098 42.3207 69.2604C42.125 69.9691 42.4674 70.1715 43.0543 70.1715Z" fill="#1B140F"/>
</g>
<defs>
<clipPath id="clip0_146_2285">
<rect width="45" height="45" fill="white" transform="translate(27.5 27.5)"/>
</clipPath>
</defs>
</svg>
